<svg width="362" height="362" viewBox="0 0 362 362" fill="none" xmlns="http://www.w3.org/2000/svg">
<path d="M351.03 304.72C348.002 304.72 345.545 307.176 345.545 310.204V345.545H205.757V310.204C205.757 309.918 205.636 309.671 205.594 309.395V273.398C205.594 270.37 203.137 267.913 200.109 267.913C197.08 267.913 194.624 270.37 194.624 273.398V304.719H124.379C121.35 304.719 118.894 307.175 118.894 310.204C118.894 313.233 121.35 315.689 124.379 315.689H194.787V345.545H93.5452V309.554C93.5452 306.525 91.0891 304.069 88.0604 304.069H55.759V168.134H194.3V198.48C194.3 201.509 196.756 203.965 199.785 203.965H273.072C276.101 203.965 278.557 201.509 278.557 198.48V168.134H310.207C313.236 168.134 315.692 165.678 315.692 162.649V49.187C315.692 46.1583 313.236 43.7022 310.207 43.7022H199.785C196.756 43.7022 194.3 46.1583 194.3 49.187C194.3 52.2158 196.756 54.6719 199.785 54.6719H231.432V87.4071C231.432 90.4358 233.888 92.8919 236.917 92.8919H270.193V119.382H205.594V87.027C205.594 83.9983 203.137 81.5421 200.109 81.5421C197.08 81.5421 194.624 83.9983 194.624 87.027V119.382H163.303C160.274 119.382 157.818 121.838 157.818 124.866C157.818 127.895 160.274 130.351 163.303 130.351H231.433V163.627C231.433 166.656 233.889 169.112 236.918 169.112C239.946 169.112 242.402 166.656 242.402 163.627V130.351H275.678C278.707 130.351 281.163 127.895 281.163 124.866V87.4065C281.163 84.3778 278.707 81.9217 275.678 81.9217H242.402V54.6719H304.723V157.165H273.073C270.044 157.165 267.588 159.621 267.588 162.649V192.995H205.269V162.649C205.269 159.621 202.813 157.165 199.785 157.165H93.3818V130.351H127.148C130.177 130.351 132.633 127.895 132.633 124.866C132.633 121.837 130.177 119.381 127.148 119.381H93.3818V56.7364H127.148C130.177 56.7364 132.633 54.2803 132.633 51.2515C132.633 48.2228 130.177 45.7667 127.148 45.7667H48.6457C45.6169 45.7667 43.1608 48.2228 43.1608 51.2515C43.1608 54.2803 45.6169 56.7364 48.6457 56.7364H82.4121V119.381H50.2741C47.2454 119.381 44.7893 121.837 44.7893 124.866C44.7893 127.895 47.2454 130.351 50.2741 130.351H82.4121V157.165H50.2741C47.2454 157.165 44.7893 159.621 44.7893 162.649V309.554C44.7893 312.583 47.2454 315.039 50.2741 315.039H82.5755V345.545H16.4546V89.3619C16.4546 86.3332 13.9984 83.877 10.9697 83.877C7.94098 83.877 5.48486 86.3332 5.48486 89.3619V351.03C5.48486 354.059 7.94098 356.515 10.9697 356.515H351.03C354.059 356.515 356.515 354.059 356.515 351.03V310.204C356.515 307.176 354.059 304.72 351.03 304.72Z" fill="#F2421B"/>
<path d="M351.03 5.48486H10.9697C7.94098 5.48486 5.48486 7.94098 5.48486 10.9697V49.187C5.48486 52.2158 7.94098 54.6719 10.9697 54.6719C13.9984 54.6719 16.4546 52.2158 16.4546 49.187V16.4546H157.818V81.9217H124.215C121.187 81.9217 118.731 84.3778 118.731 87.4066C118.731 90.4353 121.187 92.8914 124.215 92.8914H163.303C166.332 92.8914 168.788 90.4353 168.788 87.4066V16.4546H345.545V268.238H273.399C270.37 268.238 267.914 270.694 267.914 273.723V304.72H242.402V242.402H310.207C313.236 242.402 315.692 239.946 315.692 236.917V200.109C315.692 197.08 313.236 194.624 310.207 194.624C307.178 194.624 304.722 197.08 304.722 200.109V231.432H123.888C120.86 231.432 118.404 233.888 118.404 236.917C118.404 239.946 120.86 242.402 123.888 242.402H157.818V268.238H92.8914V205.593H163.303C166.331 205.593 168.787 203.137 168.787 200.109C168.787 197.08 166.331 194.624 163.303 194.624H87.4066C84.3778 194.624 81.9217 197.08 81.9217 200.109V273.723C81.9217 276.752 84.3778 279.208 87.4066 279.208H163.303C166.331 279.208 168.787 276.752 168.787 273.723V242.402H231.432V310.205C231.432 313.234 233.888 315.69 236.917 315.69H273.399C276.428 315.69 278.884 313.234 278.884 310.205V279.208H351.03C354.059 279.208 356.515 276.752 356.515 273.723V10.9697C356.515 7.94098 354.059 5.48486 351.03 5.48486Z" fill="#F2421B"/>
</svg>
